<svg width="20" height="20" viewBox="0 0 20 20" fill="none" xmlns="http://www.w3.org/2000/svg">
<path d="M12.3319 3C12.3319 2.46957 12.1211 1.96086 11.7461 1.58579C11.371 1.21071 10.8623 1 10.3319 1C9.80143 1 9.29272 1.21071 8.91765 1.58579C8.54257 1.96086 8.33186 2.46957 8.33186 3M17.5919 7.696L18.9769 16.696C19.0207 16.9808 19.0024 17.2718 18.9233 17.5489C18.8442 17.8261 18.7061 18.0828 18.5186 18.3016C18.331 18.5204 18.0984 18.6961 17.8366 18.8167C17.5748 18.9372 17.2901 18.9997 17.0019 19H3.66186C3.37349 19 3.08853 18.9377 2.8265 18.8173C2.56448 18.6969 2.33159 18.5212 2.14381 18.3024C1.95602 18.0836 1.81778 17.8267 1.73857 17.5494C1.65935 17.2721 1.64103 16.981 1.68486 16.696L3.06986 7.696C3.14251 7.22359 3.38194 6.79282 3.74479 6.4817C4.10763 6.17059 4.5699 5.9997 5.04786 6H15.6159C16.0937 5.99994 16.5557 6.17094 16.9183 6.48203C17.281 6.79312 17.5192 7.22376 17.5919 7.696Z" stroke="black" stroke-width="1.5" stroke-linecap="round" stroke-linejoin="round"/>
</svg>
