<svg width="22" height="22" viewBox="0 0 22 22" fill="none" xmlns="http://www.w3.org/2000/svg">
<path d="M7.58699 7.23594L10.185 2.00394C10.2606 1.85253 10.3769 1.72517 10.5209 1.63616C10.6648 1.54715 10.8307 1.5 11 1.5C11.1692 1.5 11.3351 1.54715 11.4791 1.63616C11.6231 1.72517 11.7394 1.85253 11.815 2.00394L14.413 7.23594L20.221 8.07994C20.3885 8.10317 20.5461 8.17303 20.6759 8.28155C20.8056 8.39007 20.9022 8.53288 20.9546 8.69367C21.0071 8.85446 21.0133 9.02676 20.9725 9.19089C20.9317 9.35503 20.8456 9.5044 20.724 9.62194L16.522 13.6919L17.514 19.4419C17.641 20.1799 16.861 20.7419 16.194 20.3939L11 17.6779L5.80499 20.3939C5.13899 20.7429 4.35899 20.1799 4.48599 19.4409L5.47799 13.6909L1.27599 9.62094C1.15498 9.50332 1.06939 9.3541 1.02896 9.19026C0.988524 9.02641 0.994866 8.85451 1.04726 8.69409C1.09966 8.53367 1.19601 8.39116 1.32536 8.28277C1.45471 8.17439 1.61188 8.10446 1.77899 8.08094L7.58699 7.23594Z" stroke="black" stroke-width="1.5" stroke-linecap="round" stroke-linejoin="round"/>
</svg>
